<svg width="22" height="22" viewBox="0 0 22 22" fill="none" xmlns="http://www.w3.org/2000/svg">
<g opacity="0.7">
<path d="M10.0092 13.1243C11.4872 13.1243 12.6854 11.9262 12.6854 10.4482C12.6854 8.97014 11.4872 7.77197 10.0092 7.77197C8.53118 7.77197 7.33301 8.97014 7.33301 10.4482C7.33301 11.9262 8.53118 13.1243 10.0092 13.1243Z" stroke="#292D32" stroke-width="1.5" stroke-linecap="round" stroke-linejoin="round"/>
<path d="M14.9521 19.2864C14.9521 17.0674 12.7426 15.2578 10.0093 15.2578C7.27593 15.2578 5.06641 17.0579 5.06641 19.2864" stroke="#292D32" stroke-width="1.5" stroke-linecap="round" stroke-linejoin="round"/>
<path d="M19.0952 11.9524C19.0952 16.9524 15.0476 21 10.0476 21C5.04762 21 1 16.9524 1 11.9524C1 6.9524 5.04762 2.90479 10.0476 2.90479C11.2952 2.90479 12.4857 3.15239 13.5714 3.60954C13.4476 3.99049 13.381 4.3905 13.381 4.80955C13.381 5.52383 13.581 6.20002 13.9333 6.77145C14.1238 7.09526 14.3714 7.39047 14.6571 7.63809C15.3238 8.24761 16.2095 8.61907 17.1905 8.61907C17.6095 8.61907 18.0095 8.55238 18.381 8.41905C18.8381 9.50476 19.0952 10.7048 19.0952 11.9524Z" stroke="#292D32" stroke-width="1.5" stroke-linecap="round" stroke-linejoin="round"/>
<path d="M20.9999 4.80952C20.9999 5.11429 20.9618 5.40952 20.8856 5.69523C20.7999 6.07618 20.6475 6.44762 20.4475 6.77143C19.9904 7.54285 19.257 8.14284 18.3809 8.41903C18.0094 8.55236 17.6094 8.61905 17.1904 8.61905C16.2094 8.61905 15.3237 8.24759 14.6571 7.63807C14.3713 7.39045 14.1237 7.09524 13.9332 6.77143C13.5809 6.2 13.3809 5.52381 13.3809 4.80952C13.3809 4.39048 13.4475 3.99047 13.5713 3.60951C13.7523 3.05713 14.0571 2.56193 14.4571 2.1524C15.1523 1.43812 16.1237 1 17.1904 1C18.3142 1 19.3332 1.48573 20.019 2.26668C20.6285 2.94287 20.9999 3.8381 20.9999 4.80952Z" stroke="#292D32" stroke-width="1.5" stroke-miterlimit="10" stroke-linecap="round" stroke-linejoin="round"/>
<path d="M18.6096 4.79053H15.7715" stroke="#292D32" stroke-width="1.5" stroke-miterlimit="10" stroke-linecap="round" stroke-linejoin="round"/>
<path d="M17.1909 3.3999V6.24751" stroke="#292D32" stroke-width="1.5" stroke-miterlimit="10" stroke-linecap="round" stroke-linejoin="round"/>
</g>
</svg>
