<svg width="18" height="22" viewBox="0 0 18 22" fill="none" xmlns="http://www.w3.org/2000/svg">
<g opacity="0.7">
<path d="M9.04597 1.96973C5.73597 1.96973 3.04597 4.65973 3.04597 7.96973V10.8597C3.04597 11.4697 2.78597 12.3997 2.47597 12.9197L1.32597 14.8297C0.615967 16.0097 1.10597 17.3197 2.40597 17.7597C6.71597 19.1997 11.366 19.1997 15.676 17.7597C16.886 17.3597 17.416 15.9297 16.756 14.8297L15.606 12.9197C15.306 12.3997 15.046 11.4697 15.046 10.8597V7.96973C15.046 4.66973 12.346 1.96973 9.04597 1.96973Z" stroke="#292D32" stroke-width="1.5" stroke-miterlimit="10" stroke-linecap="round"/>
<path d="M10.8963 2.26C10.5863 2.17 10.2663 2.1 9.93629 2.06C8.97629 1.94 8.05629 2.01 7.19629 2.26C7.48629 1.52 8.20629 1 9.04629 1C9.88629 1 10.6063 1.52 10.8963 2.26Z" stroke="#292D32" stroke-width="1.5" stroke-miterlimit="10" stroke-linecap="round" stroke-linejoin="round"/>
<path d="M12.0459 18.1201C12.0459 19.7701 10.6959 21.1201 9.0459 21.1201C8.2259 21.1201 7.4659 20.7801 6.9259 20.2401C6.3859 19.7001 6.0459 18.9401 6.0459 18.1201" stroke="#292D32" stroke-width="1.5" stroke-miterlimit="10"/>
</g>
</svg>
