<svg width="22" height="18" viewBox="0 0 22 18" fill="none" xmlns="http://www.w3.org/2000/svg">
<g id="3 User">
<path id="Stroke 1" d="M16.8877 7.65838C18.2827 7.46309 19.3567 6.27143 19.3597 4.82768C19.3597 3.40485 18.3187 2.22514 16.9537 2.00195" stroke="#09110E" stroke-width="1.5" stroke-linecap="round" stroke-linejoin="round"/>
<path id="Stroke 3" d="M18.7285 11C20.0795 11.2013 21.0225 11.6726 21.0225 12.644C21.0225 13.3126 20.5785 13.747 19.8605 14.02" stroke="#09110E" stroke-width="1.5" stroke-linecap="round" stroke-linejoin="round"/>
<path id="Stroke 5" fill-rule="evenodd" clip-rule="evenodd" d="M10.8867 11.4121C7.67273 11.4121 4.92773 11.8973 4.92773 13.8353C4.92773 15.7723 7.65573 16.2714 10.8867 16.2714C14.1007 16.2714 16.8447 15.7912 16.8447 13.8522C16.8447 11.9133 14.1177 11.4121 10.8867 11.4121Z" stroke="#09110E" stroke-width="1.5" stroke-linecap="round" stroke-linejoin="round"/>
<path id="Stroke 7" fill-rule="evenodd" clip-rule="evenodd" d="M10.8864 8.64646C12.9954 8.64646 14.7054 6.94365 14.7054 4.8413C14.7054 2.73994 12.9954 1.03613 10.8864 1.03613C8.77741 1.03613 7.06741 2.73994 7.06741 4.8413C7.05941 6.93568 8.75641 8.63948 10.8584 8.64646H10.8864Z" stroke="#09110E" stroke-width="1.5" stroke-linecap="round" stroke-linejoin="round"/>
<path id="Stroke 9" d="M4.88509 7.65838C3.48909 7.46309 2.41609 6.27143 2.41309 4.82768C2.41309 3.40485 3.45409 2.22514 4.81909 2.00195" stroke="#09110E" stroke-width="1.5" stroke-linecap="round" stroke-linejoin="round"/>
<path id="Stroke 11" d="M3.044 11C1.693 11.2013 0.75 11.6726 0.75 12.644C0.75 13.3126 1.194 13.747 1.912 14.02" stroke="#09110E" stroke-width="1.5" stroke-linecap="round" stroke-linejoin="round"/>
</g>
</svg>
