<svg width="22" height="22" viewBox="0 0 22 22" fill="none" xmlns="http://www.w3.org/2000/svg">
<g opacity="0.7">
<path d="M8 21H14C19 21 21 19 21 14V8C21 3 19 1 14 1H8C3 1 1 3 1 8V14C1 19 3 21 8 21Z" stroke="#292D32" stroke-width="1.5" stroke-linecap="round" stroke-linejoin="round"/>
<path d="M1 12.0002H4.76C5.52 12.0002 6.21 12.4302 6.55 13.1102L7.44 14.9002C8 16.0002 9 16.0002 9.24 16.0002H12.77C13.53 16.0002 14.22 15.5702 14.56 14.8902L15.45 13.1002C15.79 12.4202 16.48 11.9902 17.24 11.9902H20.98" stroke="#292D32" stroke-width="1.5" stroke-linecap="round" stroke-linejoin="round"/>
</g>
</svg>
