<svg width="20" height="22" viewBox="0 0 20 22" fill="none" xmlns="http://www.w3.org/2000/svg">
<g opacity="0.7">
<path d="M10 1V7L12 5" stroke="#292D32" stroke-width="1.5" stroke-linecap="round" stroke-linejoin="round"/>
<path d="M10 7L8 5" stroke="#292D32" stroke-width="1.5" stroke-linecap="round" stroke-linejoin="round"/>
<path d="M5 11C1 11 1 12.79 1 15V16C1 18.76 1 21 6 21H14C18 21 19 18.76 19 16V15C19 12.79 19 11 15 11C14 11 13.72 11.21 13.2 11.6L12.18 12.68C11 13.94 9 13.94 7.81 12.68L6.8 11.6C6.28 11.21 6 11 5 11Z" stroke="#292D32" stroke-width="1.5" stroke-miterlimit="10" stroke-linecap="round" stroke-linejoin="round"/>
<path d="M3 11V7.00004C3 4.99004 3 3.33004 6 3.04004" stroke="#292D32" stroke-width="1.5" stroke-miterlimit="10" stroke-linecap="round" stroke-linejoin="round"/>
<path d="M17 11V7.00004C17 4.99004 17 3.33004 14 3.04004" stroke="#292D32" stroke-width="1.5" stroke-miterlimit="10" stroke-linecap="round" stroke-linejoin="round"/>
</g>
</svg>
