<svg width="20" height="20" viewBox="0 0 20 20" fill="none" xmlns="http://www.w3.org/2000/svg">
<mask id="mask0_32_1381" style="mask-type:alpha" maskUnits="userSpaceOnUse" x="0" y="12" width="16" height="8">
<path fill-rule="evenodd" clip-rule="evenodd" d="M0 12.4561H15.754V19.795H0V12.4561Z" fill="white"/>
</mask>
<g mask="url(#mask0_32_1381)">
<path fill-rule="evenodd" clip-rule="evenodd" d="M7.877 13.9561C3.646 13.9561 1.5 14.6831 1.5 16.1151C1.5 17.5611 3.646 18.2951 7.877 18.2951C12.108 18.2951 14.254 17.5681 14.254 16.1371C14.254 14.6891 12.108 13.9561 7.877 13.9561ZM7.877 19.7951C5.929 19.7951 0 19.7951 0 16.1151C0 12.8351 4.495 12.4561 7.877 12.4561C9.825 12.4561 15.754 12.4561 15.754 16.1371C15.754 19.4161 11.259 19.7951 7.877 19.7951Z" fill="black"/>
</g>
<path fill-rule="evenodd" clip-rule="evenodd" d="M7.8766 1.5C5.7726 1.5 4.0596 3.213 4.0596 5.318C4.0556 6.337 4.4476 7.292 5.1626 8.013C5.8786 8.733 6.8326 9.132 7.8486 9.136L7.8766 9.886V9.136C9.9816 9.136 11.6946 7.423 11.6946 5.318C11.6946 3.213 9.9816 1.5 7.8766 1.5ZM7.8766 10.636H7.8456C6.4266 10.631 5.0966 10.074 4.0996 9.07C3.1016 8.065 2.5546 6.731 2.5596 5.315C2.5596 2.386 4.9446 0 7.8766 0C10.8096 0 13.1946 2.386 13.1946 5.318C13.1946 8.25 10.8096 10.636 7.8766 10.636Z" fill="black"/>
<path fill-rule="evenodd" clip-rule="evenodd" d="M17.2041 11.4297C16.7901 11.4297 16.4541 11.0937 16.4541 10.6797V6.6687C16.4541 6.2547 16.7901 5.9187 17.2041 5.9187C17.6181 5.9187 17.9541 6.2547 17.9541 6.6687V10.6797C17.9541 11.0937 17.6181 11.4297 17.2041 11.4297Z" fill="black"/>
<path fill-rule="evenodd" clip-rule="evenodd" d="M19.2502 9.42383H15.1602C14.7462 9.42383 14.4102 9.08783 14.4102 8.67383C14.4102 8.25983 14.7462 7.92383 15.1602 7.92383H19.2502C19.6642 7.92383 20.0002 8.25983 20.0002 8.67383C20.0002 9.08783 19.6642 9.42383 19.2502 9.42383Z" fill="black"/>
</svg>
