<svg width="44" height="44" viewBox="0 0 44 44" fill="none" xmlns="http://www.w3.org/2000/svg">
<path d="M22 44C34.1503 44 44 34.1503 44 22C44 9.84974 34.1503 0 22 0C9.84974 0 0 9.84974 0 22C0 34.1503 9.84974 44 22 44Z" fill="#FFCE00"/>
<path d="M43.8819 24.2942L33.9306 14.343L10.8317 37.0755L17.2399 43.4837C18.7727 43.8219 20.3656 44.0001 22 44.0001C33.3757 44.0001 42.7347 35.3663 43.8819 24.2942Z" fill="#FFA300"/>
<path d="M25.8386 6H12.3267C11.0416 6 10 7.04173 10 8.32667V35.033C10 36.318 11.0416 37.3596 12.3267 37.3596H31.5346C32.8196 37.3596 33.8612 36.3179 33.8612 35.033V14.0227L25.8386 6Z" fill="#518EF8"/>
<path d="M25.8385 6H21.9409V37.3597H31.5346C32.8196 37.3597 33.8612 36.3181 33.8612 35.033V14.0227L25.8385 6Z" fill="#226EF2"/>
<path d="M25.8386 11.696C25.8386 12.981 26.8803 14.0227 28.1653 14.0227H33.8613L25.8386 6V11.696Z" fill="#518EF8"/>
<path d="M15.2413 19.812H13.7773V24H15.2413C16.5793 24 17.4493 23.178 17.4493 21.912C17.4493 20.64 16.5793 19.812 15.2413 19.812ZM14.6173 23.286V20.52H15.2113C16.0933 20.52 16.5913 21.042 16.5913 21.912C16.5913 22.782 16.0933 23.286 15.2113 23.286H14.6173ZM22.1641 21.894C22.1641 20.64 21.2161 19.752 20.0221 19.752C18.8401 19.752 17.8741 20.64 17.8741 21.894C17.8741 23.154 18.8401 24.042 20.0221 24.042C21.2101 24.042 22.1641 23.154 22.1641 21.894ZM18.7381 21.894C18.7381 21.042 19.2601 20.508 20.0221 20.508C20.7781 20.508 21.3001 21.042 21.3001 21.894C21.3001 22.746 20.7781 23.292 20.0221 23.292C19.2601 23.292 18.7381 22.746 18.7381 21.894ZM22.585 21.9C22.585 23.154 23.503 24.036 24.709 24.036C25.639 24.036 26.395 23.544 26.677 22.68H25.711C25.513 23.088 25.153 23.286 24.703 23.286C23.971 23.286 23.449 22.746 23.449 21.9C23.449 21.048 23.971 20.514 24.703 20.514C25.153 20.514 25.513 20.712 25.711 21.114H26.677C26.395 20.256 25.639 19.758 24.709 19.758C23.503 19.758 22.585 20.646 22.585 21.9ZM30.3225 22.788C30.3225 21.312 28.1745 21.78 28.1745 20.94C28.1745 20.598 28.4205 20.436 28.7505 20.448C29.1105 20.454 29.3325 20.67 29.3505 20.946H30.2745C30.2205 20.19 29.6325 19.752 28.7745 19.752C27.9105 19.752 27.2985 20.208 27.2985 20.964C27.2925 22.482 29.4525 21.936 29.4525 22.842C29.4525 23.142 29.2185 23.352 28.8225 23.352C28.4325 23.352 28.2105 23.13 28.1865 22.794H27.2865C27.2985 23.586 27.9705 24.042 28.8405 24.042C29.7945 24.042 30.3225 23.448 30.3225 22.788Z" fill="white"/>
</svg>
