<svg width="212" height="72" viewBox="0 0 212 72" fill="none" xmlns="http://www.w3.org/2000/svg">
<path d="M101.936 39.594L89.7115 24.5866C88.9639 23.6591 87.8286 23.133 86.6519 23.133H84.8105V47.4577H89.2961V30.9828L101.507 45.9902C102.255 46.9177 103.39 47.4438 104.567 47.4438H106.408V23.1191H101.922V39.594H101.936Z" fill="white"/>
<path d="M125.444 29.8754C124.018 29.0724 122.398 28.6709 120.598 28.6709C118.771 28.6709 117.123 29.0724 115.67 29.8892C114.216 30.706 113.067 31.8274 112.25 33.2811C111.433 34.7348 111.018 36.3546 111.018 38.1682C111.018 39.9957 111.447 41.6432 112.292 43.083C113.136 44.5366 114.341 45.658 115.891 46.4749C117.442 47.2917 119.242 47.6932 121.277 47.6932C122.869 47.6932 124.309 47.444 125.582 46.9317C126.856 46.4195 127.908 45.6719 128.739 44.6751L127.991 43.8167C127.175 42.8891 125.845 42.6676 124.738 43.2491C123.755 43.7613 122.634 44.0244 121.374 44.0244C119.782 44.0244 118.439 43.6229 117.359 42.8199C116.279 42.0169 115.614 40.9371 115.365 39.5665H129.93C129.971 39.0127 129.999 38.5835 129.999 38.2789C129.999 36.3823 129.597 34.7071 128.794 33.2534C127.978 31.7997 126.87 30.6783 125.444 29.8754ZM115.31 36.673C115.518 35.3024 116.099 34.2087 117.068 33.3919C118.023 32.575 119.2 32.1597 120.598 32.1597C122.011 32.1597 123.187 32.575 124.143 33.4057C125.098 34.2364 125.666 35.3301 125.845 36.673H115.31Z" fill="white"/>
<path d="M150.018 28.8926H145.325L140.77 34.9703L137.406 30.4708C136.658 29.474 135.481 28.8926 134.235 28.8926H131.383L138.292 38.0299L131.065 47.4441H135.855L140.645 41.0203L144.217 45.852C144.965 46.8627 146.142 47.458 147.388 47.458H150.295L143.027 37.9745L150.018 28.8926Z" fill="white"/>
<path d="M171.034 28.8926H166.34L161.786 34.9703L158.421 30.4708C157.674 29.474 156.497 28.8926 155.251 28.8926H152.399L159.307 38.0299L152.081 47.4441H156.871L161.661 41.0203L165.233 45.852C165.98 46.8627 167.157 47.458 168.403 47.458H171.31L164.042 37.9745L171.034 28.8926Z" fill="white"/>
<path d="M192.16 44.8137V28.8926H187.813V38.2791C187.813 40.0789 187.356 41.4772 186.442 42.4324C185.529 43.3877 184.296 43.8723 182.746 43.8723C181.361 43.8723 180.282 43.4569 179.534 42.6401C178.786 41.8233 178.399 40.5773 178.399 38.9021V31.5369C178.399 30.0832 177.222 28.9064 175.768 28.9064H174.065V39.4974C174.065 42.2109 174.771 44.2461 176.197 45.6305C177.623 47.015 179.576 47.6933 182.054 47.6933C183.258 47.6933 184.38 47.4718 185.418 47.015C186.456 46.5581 187.328 45.9213 188.021 45.0906V47.458H189.516C190.983 47.4441 192.16 46.2674 192.16 44.8137Z" fill="white"/>
<path d="M203.596 47.6936C206.185 47.6936 208.234 47.1675 209.743 46.1292C211.252 45.0909 212 43.6926 212 41.962C212 40.6468 211.653 39.6223 210.975 38.9024C210.297 38.1825 209.48 37.6702 208.525 37.3795C207.569 37.0749 206.365 36.8119 204.87 36.5765C203.388 36.3273 202.295 36.0504 201.589 35.7597C200.883 35.469 200.523 34.9844 200.523 34.2784C200.523 33.6554 200.855 33.1431 201.519 32.7693C202.184 32.3817 203.153 32.2017 204.427 32.2017C205.603 32.2017 206.697 32.3678 207.736 32.7001C208.968 33.0877 210.283 32.534 210.864 31.3849L211.418 30.305C210.601 29.8204 209.563 29.4328 208.289 29.1421C207.016 28.8513 205.742 28.7129 204.468 28.7129C201.962 28.7129 199.983 29.239 198.515 30.2912C197.048 31.3433 196.314 32.7555 196.314 34.5137C196.314 35.8566 196.66 36.9088 197.38 37.6564C198.086 38.404 198.917 38.9301 199.886 39.2347C200.841 39.5392 202.087 39.8023 203.624 40.0377C205.077 40.273 206.143 40.5084 206.808 40.7714C207.472 41.0206 207.805 41.4775 207.805 42.1282C207.805 43.4988 206.503 44.1771 203.914 44.1771C202.779 44.1771 201.63 44.011 200.453 43.6787C200.163 43.5957 199.872 43.4988 199.609 43.4018C198.321 42.945 196.895 43.4434 196.272 44.6617L195.774 45.6447C196.632 46.2538 197.781 46.7384 199.207 47.1399C200.619 47.486 202.087 47.6936 203.596 47.6936Z" fill="white"/>
<path d="M184.809 53.0796C183.715 52.4843 182.483 52.1797 181.127 52.1797C179.77 52.1797 178.538 52.4843 177.43 53.0934C176.323 53.7026 175.464 54.5332 174.841 55.5993C174.218 56.6653 173.914 57.8559 173.914 59.1711C173.914 60.4864 174.218 61.677 174.841 62.743C175.464 63.809 176.323 64.6397 177.43 65.2488C178.538 65.858 179.77 66.1626 181.127 66.1626C182.483 66.1626 183.715 65.858 184.809 65.2627C185.903 64.6674 186.761 63.8229 187.384 62.7568C188.007 61.6908 188.326 60.5002 188.326 59.1711C188.326 57.8559 188.007 56.6514 187.384 55.5854C186.761 54.5194 185.903 53.6749 184.809 53.0796ZM186.138 62.0785C185.64 62.9507 184.948 63.629 184.075 64.1136C183.203 64.5982 182.22 64.8474 181.127 64.8474C180.033 64.8474 179.05 64.5982 178.178 64.1136C177.292 63.629 176.599 62.9368 176.101 62.0785C175.603 61.2063 175.34 60.2372 175.34 59.1573C175.34 58.0913 175.589 57.1083 176.101 56.2361C176.599 55.3639 177.292 54.6855 178.178 54.201C179.064 53.7164 180.047 53.4672 181.127 53.4672C182.206 53.4672 183.189 53.7164 184.075 54.201C184.948 54.6855 185.64 55.3778 186.138 56.2361C186.637 57.1083 186.886 58.0774 186.886 59.1573C186.886 60.2372 186.637 61.2063 186.138 62.0785Z" fill="white"/>
<path d="M195.747 55.626C194.86 55.626 194.071 55.806 193.407 56.1521C192.742 56.4982 192.202 56.9827 191.829 57.6196V55.709H190.5V66.037H191.898V60.6238C191.898 59.4609 192.216 58.5472 192.867 57.8826C193.518 57.2181 194.39 56.8858 195.511 56.8858C196.508 56.8858 197.269 57.1627 197.809 57.7303C198.349 58.298 198.612 59.1148 198.612 60.1808V66.0232H200.011V60.0424C200.011 58.6025 199.623 57.5088 198.862 56.7612C198.072 55.9998 197.034 55.626 195.747 55.626Z" fill="white"/>
<path d="M209.563 56.2905C208.802 55.8475 207.943 55.626 206.988 55.626C206.033 55.626 205.174 55.8475 204.413 56.2905C203.652 56.7335 203.042 57.3565 202.613 58.1595C202.17 58.9625 201.949 59.8624 201.949 60.873C201.949 61.8837 202.184 62.7836 202.641 63.5865C203.098 64.3895 203.735 65.0125 204.551 65.4555C205.368 65.9124 206.31 66.1339 207.362 66.1339C208.193 66.1339 208.94 65.9955 209.632 65.7047C210.325 65.414 210.892 64.9987 211.349 64.4449L210.56 63.545C210.172 63.988 209.702 64.3203 209.162 64.5556C208.622 64.791 208.04 64.9018 207.39 64.9018C206.254 64.9018 205.313 64.5695 204.565 63.905C203.818 63.2404 203.402 62.3821 203.333 61.3022H211.972L211.986 60.873C211.986 59.8485 211.764 58.9486 211.335 58.1595C210.92 57.3565 210.325 56.7474 209.563 56.2905ZM203.347 60.2639C203.444 59.2394 203.818 58.4087 204.496 57.7857C205.174 57.1489 206.005 56.8304 207.002 56.8304C208.013 56.8304 208.843 57.1489 209.522 57.7857C210.2 58.4226 210.574 59.2532 210.671 60.2639H203.347Z" fill="white"/>
<path d="M42.7245 42.7372C44.8012 40.6605 48.1792 40.6605 50.2697 42.7372L54.0908 46.5583L46.5456 54.1035L42.7245 50.2824C40.6478 48.1919 40.6478 44.8139 42.7245 42.7372Z" fill="white"/>
<path d="M45.0772 60.1679C47.1538 58.0912 50.5319 58.0912 52.6224 60.1679L56.4434 63.9889L48.8982 71.5203L45.0772 67.6992C42.9866 65.6226 42.9866 62.2445 45.0772 60.1679Z" fill="white"/>
<path d="M28.7965 28.796C26.7198 30.8726 23.3418 30.8726 21.2512 28.796L17.4302 24.9749L24.9754 17.4297L28.7965 21.2508C30.8731 23.3413 30.8731 26.7193 28.7965 28.796Z" fill="white"/>
<path d="M11.3663 26.4571C9.28962 28.5338 5.91158 28.5338 3.82107 26.4571L0 22.636L7.54522 15.0908L11.3663 18.9119C13.443 21.0024 13.443 24.3666 11.3663 26.4571Z" fill="white"/>
<path d="M26.4429 11.3663C24.3663 13.443 20.9882 13.443 18.8977 11.3663L15.0767 7.54523L22.6219 0L26.4429 3.82107C28.5335 5.91158 28.5335 9.28962 26.4429 11.3663Z" fill="white"/>
<path d="M60.1542 45.078C62.2308 43.0013 65.6089 43.0013 67.6994 45.078L71.5205 48.8991L63.9753 56.4443L60.1542 52.6232C58.0775 50.5327 58.0775 47.1685 60.1542 45.078Z" fill="white"/>
<path d="M42.7245 28.796C40.6478 26.7193 40.6478 23.3413 42.7245 21.2508L46.5456 17.4297L54.0908 24.9749L50.2697 28.796C48.193 30.8726 44.815 30.8726 42.7245 28.796Z" fill="white"/>
<path d="M45.0775 11.3663C43.0009 9.28962 43.0009 5.91158 45.0775 3.82107L48.8986 0L56.4438 7.54523L52.6227 11.3663C50.5322 13.4568 47.1542 13.4568 45.0775 11.3663Z" fill="white"/>
<path d="M60.1542 26.4571C58.0775 24.3804 58.0775 21.0024 60.1542 18.9119L63.9753 15.0908L71.5205 22.636L67.6994 26.4571C65.6089 28.5338 62.2308 28.5338 60.1542 26.4571Z" fill="white"/>
<path d="M28.7965 42.7372C30.8731 44.8139 30.8731 48.1919 28.7965 50.2824L24.9754 54.1035L17.4302 46.5583L21.2512 42.7372C23.3279 40.6605 26.706 40.6605 28.7965 42.7372Z" fill="white"/>
<path d="M26.4429 60.1685C28.5196 62.2451 28.5196 65.6232 26.4429 67.7137L22.6219 71.5348L15.0767 63.9895L18.8977 60.1685C20.9882 58.078 24.3663 58.078 26.4429 60.1685Z" fill="white"/>
<path d="M11.3663 45.078C13.443 47.1547 13.443 50.5327 11.3663 52.6232L7.54522 56.4443L0 48.8991L3.82107 45.078C5.91158 43.0013 9.27578 43.0013 11.3663 45.078Z" fill="white"/>
</svg>
