<svg width="207" height="70" viewBox="0 0 207 70" fill="none" xmlns="http://www.w3.org/2000/svg">
<path d="M99.1586 38.5159L87.2673 23.9177C86.5401 23.0154 85.4358 22.5037 84.2911 22.5037H82.5V46.1651H86.8633V30.1394L98.7411 44.7376C99.4683 45.6399 100.573 46.1516 101.717 46.1516H103.508V22.4902H99.1451V38.5159H99.1586Z" fill="#1B1B1B"/>
<path d="M122.025 29.0613C120.638 28.2802 119.062 27.8896 117.311 27.8896C115.534 27.8896 113.931 28.2802 112.517 29.0747C111.103 29.8693 109.985 30.9601 109.191 32.3741C108.396 33.7882 107.992 35.3638 107.992 37.128C107.992 38.9056 108.41 40.5082 109.231 41.9087C110.053 43.3227 111.224 44.4136 112.733 45.2081C114.241 46.0027 115.992 46.3932 117.971 46.3932C119.52 46.3932 120.92 46.1508 122.159 45.6525C123.398 45.1542 124.422 44.427 125.23 43.4574L124.503 42.6225C123.708 41.7202 122.415 41.5047 121.338 42.0703C120.382 42.5686 119.291 42.8245 118.065 42.8245C116.517 42.8245 115.21 42.4339 114.16 41.6528C113.11 40.8718 112.463 39.8213 112.221 38.4881H126.388C126.428 37.9494 126.455 37.532 126.455 37.2357C126.455 35.3907 126.065 33.7612 125.284 32.3472C124.489 30.9332 123.412 29.8424 122.025 29.0613ZM112.167 35.6735C112.369 34.3403 112.935 33.2764 113.877 32.4819C114.806 31.6873 115.951 31.2833 117.311 31.2833C118.685 31.2833 119.83 31.6873 120.759 32.4953C121.688 33.3034 122.24 34.3672 122.415 35.6735H112.167Z" fill="#1B1B1B"/>
<path d="M145.927 28.1064H141.362L136.932 34.0184L133.659 29.6417C132.932 28.6721 131.787 28.1064 130.575 28.1064H127.801L134.521 36.9946L127.491 46.1521H132.151L136.81 39.9035L140.285 44.6034C141.012 45.5865 142.157 46.1656 143.369 46.1656H146.197L139.127 36.9407L145.927 28.1064Z" fill="#1B1B1B"/>
<path d="M166.371 28.1064H161.805L157.375 34.0184L154.102 29.6417C153.375 28.6721 152.231 28.1064 151.018 28.1064H148.244L154.964 36.9946L147.935 46.1521H152.594L157.254 39.9035L160.728 44.6034C161.455 45.5865 162.6 46.1656 163.812 46.1656H166.64L159.57 36.9407L166.371 28.1064Z" fill="#1B1B1B"/>
<path d="M186.921 43.5934V28.1064H182.692V37.237C182.692 38.9877 182.248 40.3479 181.359 41.2771C180.47 42.2063 179.271 42.6776 177.763 42.6776C176.416 42.6776 175.366 42.2736 174.639 41.4791C173.912 40.6845 173.534 39.4725 173.534 37.843V30.6786C173.534 29.2646 172.39 28.1199 170.976 28.1199H169.319V38.4221C169.319 41.0616 170.006 43.0413 171.393 44.3879C172.78 45.7346 174.679 46.3945 177.09 46.3945C178.261 46.3945 179.352 46.179 180.362 45.7346C181.372 45.2902 182.221 44.6708 182.894 43.8627V46.1656H184.348C185.776 46.1521 186.921 45.0074 186.921 43.5934Z" fill="#1B1B1B"/>
<path d="M198.044 46.3948C200.563 46.3948 202.556 45.883 204.024 44.873C205.492 43.863 206.219 42.5028 206.219 40.8195C206.219 39.5401 205.882 38.5436 205.222 37.8433C204.562 37.143 203.768 36.6447 202.839 36.3619C201.909 36.0657 200.738 35.8098 199.283 35.5808C197.842 35.3384 196.778 35.0691 196.092 34.7863C195.405 34.5035 195.055 34.0322 195.055 33.3453C195.055 32.7393 195.378 32.2411 196.024 31.8774C196.671 31.5004 197.613 31.3253 198.852 31.3253C199.997 31.3253 201.061 31.4869 202.071 31.8101C203.27 32.1872 204.549 31.6485 205.114 30.5308L205.653 29.4803C204.859 29.009 203.849 28.6319 202.61 28.3491C201.371 28.0663 200.132 27.9316 198.893 27.9316C196.455 27.9316 194.529 28.4434 193.102 29.4669C191.674 30.4904 190.961 31.864 190.961 33.5743C190.961 34.8806 191.297 35.9041 191.998 36.6313C192.685 37.3585 193.493 37.8702 194.435 38.1665C195.364 38.4628 196.576 38.7186 198.071 38.9476C199.485 39.1765 200.522 39.4055 201.169 39.6613C201.815 39.9037 202.138 40.3481 202.138 40.9811C202.138 42.3143 200.872 42.9742 198.354 42.9742C197.25 42.9742 196.132 42.8126 194.987 42.4894C194.705 42.4086 194.422 42.3143 194.166 42.22C192.913 41.7756 191.526 42.2604 190.92 43.4455L190.436 44.4017C191.27 44.9942 192.388 45.4656 193.775 45.8561C195.149 46.1928 196.576 46.3948 198.044 46.3948Z" fill="#1B1B1B"/>
<path d="M179.77 51.6341C178.706 51.0551 177.508 50.7588 176.188 50.7588C174.868 50.7588 173.67 51.0551 172.592 51.6476C171.515 52.2402 170.68 53.0482 170.074 54.0851C169.468 55.1221 169.172 56.2802 169.172 57.5596C169.172 58.8389 169.468 59.9971 170.074 61.0341C170.68 62.071 171.515 62.879 172.592 63.4716C173.67 64.0641 174.868 64.3604 176.188 64.3604C177.508 64.3604 178.706 64.0641 179.77 63.485C180.834 62.906 181.669 62.0845 182.275 61.0475C182.881 60.0106 183.191 58.8524 183.191 57.5596C183.191 56.2802 182.881 55.1086 182.275 54.0717C181.669 53.0347 180.834 52.2132 179.77 51.6341ZM181.063 60.3876C180.578 61.2361 179.905 61.8959 179.057 62.3673C178.208 62.8386 177.252 63.081 176.188 63.081C175.124 63.081 174.168 62.8386 173.32 62.3673C172.458 61.8959 171.784 61.2226 171.3 60.3876C170.815 59.5392 170.559 58.5965 170.559 57.5461C170.559 56.5092 170.801 55.553 171.3 54.7046C171.784 53.8562 172.458 53.1963 173.32 52.725C174.182 52.2536 175.138 52.0112 176.188 52.0112C177.239 52.0112 178.195 52.2536 179.057 52.725C179.905 53.1963 180.578 53.8697 181.063 54.7046C181.548 55.553 181.79 56.4957 181.79 57.5461C181.79 58.5965 181.548 59.5392 181.063 60.3876Z" fill="#1B1B1B"/>
<path d="M190.411 54.1104C189.549 54.1104 188.781 54.2854 188.135 54.6221C187.488 54.9588 186.963 55.4301 186.599 56.0496V54.1911H185.307V64.2375H186.667V58.9719C186.667 57.8407 186.977 56.9519 187.609 56.3055C188.242 55.659 189.091 55.3358 190.182 55.3358C191.151 55.3358 191.892 55.6052 192.417 56.1573C192.942 56.7095 193.198 57.504 193.198 58.541V64.224H194.558V58.4063C194.558 57.0057 194.181 55.9419 193.441 55.2146C192.673 54.474 191.663 54.1104 190.411 54.1104Z" fill="#1B1B1B"/>
<path d="M203.849 54.7568C203.109 54.3258 202.274 54.1104 201.344 54.1104C200.415 54.1104 199.58 54.3258 198.84 54.7568C198.099 55.1877 197.506 55.7937 197.089 56.5748C196.658 57.3559 196.442 58.2312 196.442 59.2143C196.442 60.1974 196.671 61.0727 197.116 61.8538C197.56 62.6349 198.18 63.2409 198.974 63.6719C199.769 64.1163 200.684 64.3317 201.708 64.3317C202.516 64.3317 203.243 64.1971 203.917 63.9143C204.59 63.6315 205.142 63.2275 205.586 62.6888L204.819 61.8134C204.442 62.2444 203.984 62.5676 203.459 62.7965C202.933 63.0255 202.368 63.1332 201.735 63.1332C200.631 63.1332 199.715 62.81 198.988 62.1636C198.26 61.5172 197.856 60.6822 197.789 59.6318H206.192L206.206 59.2143C206.206 58.2178 205.99 57.3424 205.573 56.5748C205.169 55.7937 204.59 55.2012 203.849 54.7568ZM197.803 58.6218C197.897 57.6252 198.26 56.8172 198.92 56.2112C199.58 55.5917 200.388 55.282 201.358 55.282C202.341 55.282 203.149 55.5917 203.809 56.2112C204.469 56.8307 204.832 57.6387 204.927 58.6218H197.803Z" fill="#1B1B1B"/>
<path d="M41.558 41.5726C43.578 39.5526 46.864 39.5526 48.8975 41.5726L52.6143 45.2895L45.2749 52.629L41.558 48.9121C39.538 46.8786 39.538 43.5927 41.558 41.5726Z" fill="#002147"/>
<path d="M43.8493 58.5277C45.8694 56.5077 49.1553 56.5077 51.1888 58.5277L54.9057 62.2446L47.5662 69.5706L43.8493 65.8537C41.8158 63.8337 41.8158 60.5478 43.8493 58.5277Z" fill="#002147"/>
<path d="M28.0114 28.0114C25.9914 30.0315 22.7055 30.0315 20.6719 28.0114L16.9551 24.2945L24.2946 16.9551L28.0114 20.6719C30.0315 22.7055 30.0315 25.9914 28.0114 28.0114Z" fill="#002147"/>
<path d="M11.0563 25.736C9.0363 27.7561 5.75037 27.7561 3.71687 25.736L0 22.0192L7.33947 14.6797L11.0563 18.3966C13.0764 20.4301 13.0764 23.7025 11.0563 25.736Z" fill="#002147"/>
<path d="M25.7224 11.0563C23.7023 13.0764 20.4164 13.0764 18.3829 11.0563L14.666 7.33947L22.0055 0L25.7224 3.71687C27.7559 5.75037 27.7559 9.0363 25.7224 11.0563Z" fill="#002147"/>
<path d="M58.5131 43.8471C60.5331 41.827 63.819 41.827 65.8525 43.8471L69.5694 47.5639L62.2299 54.9034L58.5131 51.1865C56.493 49.153 56.493 45.8806 58.5131 43.8471Z" fill="#002147"/>
<path d="M41.558 28.0114C39.538 25.9914 39.538 22.7055 41.558 20.6719L45.2749 16.9551L52.6143 24.2945L48.8975 28.0114C46.8774 30.0315 43.5915 30.0315 41.558 28.0114Z" fill="#002147"/>
<path d="M43.8471 11.0563C41.827 9.0363 41.827 5.75037 43.8471 3.71687L47.5639 0L54.9034 7.33947L51.1865 11.0563C49.153 13.0898 45.8671 13.0898 43.8471 11.0563Z" fill="#002147"/>
<path d="M58.5131 25.736C56.493 23.716 56.493 20.4301 58.5131 18.3966L62.2299 14.6797L69.5694 22.0192L65.8525 25.736C63.819 27.7561 60.5331 27.7561 58.5131 25.736Z" fill="#002147"/>
<path d="M28.0114 41.5726C30.0315 43.5927 30.0315 46.8786 28.0114 48.9121L24.2946 52.629L16.9551 45.2895L20.6719 41.5726C22.692 39.5526 25.9779 39.5526 28.0114 41.5726Z" fill="#002147"/>
<path d="M25.7224 58.5261C27.7424 60.5461 27.7424 63.8321 25.7224 65.8656L22.0055 69.5825L14.666 62.243L18.3829 58.5261C20.4164 56.4926 23.7023 56.4926 25.7224 58.5261Z" fill="#002147"/>
<path d="M11.0563 43.8471C13.0764 45.8671 13.0764 49.153 11.0563 51.1865L7.33947 54.9034L0 47.5639L3.71687 43.8471C5.75037 41.827 9.02283 41.827 11.0563 43.8471Z" fill="#002147"/>
</svg>
