<svg width="58" height="56" viewBox="0 0 58 56" fill="none" xmlns="http://www.w3.org/2000/svg">
<g filter="url(#filter0_d_1122_5324)">
<path fill-rule="evenodd" clip-rule="evenodd" d="M20.4069 17.2254C20.4069 21.3671 17.0494 24.7245 12.9078 24.7245C8.76616 24.7245 5.40869 21.3671 5.40869 17.2254C5.40869 13.0838 8.76616 9.72632 12.9078 9.72632C17.0494 9.72632 20.4069 13.0838 20.4069 17.2254ZM22.9571 43.6287C23.2752 41.8182 23.6792 39.5188 23.6792 36.5292C23.6792 31.4557 19.5261 27.3271 14.4213 27.3271H11.258C6.15314 27.3271 2 31.4557 2 36.5292V44.642C2 46.8454 3.79842 48.637 6.00998 48.637H20.5351C21.664 48.637 22.5803 47.7207 22.5803 46.5918C22.5803 45.7735 22.7506 44.8041 22.9571 43.6287Z" fill="url(#paint0_linear_1122_5324)"/>
<path d="M36.905 24.7245C43.4563 24.7245 48.7672 19.4136 48.7672 12.8622C48.7672 6.3109 43.4563 1 36.905 1C30.3536 1 25.0427 6.3109 25.0427 12.8622C25.0427 19.4136 30.3536 24.7245 36.905 24.7245Z" fill="url(#paint1_linear_1122_5324)"/>
<path d="M55.3119 43.8277V48.225C55.3119 50.8579 53.1698 52.9999 50.537 52.9999H23.2729C20.6401 52.9999 18.498 50.8579 18.498 48.225V43.8277C18.498 34.7292 25.9003 27.3269 34.9988 27.3269H38.8111C47.9096 27.3269 55.3119 34.7292 55.3119 43.8277Z" fill="url(#paint2_linear_1122_5324)"/>
</g>
<defs>
<filter id="filter0_d_1122_5324" x="0" y="0" width="57.3119" height="56" filterUnits="userSpaceOnUse" color-interpolation-filters="sRGB">
<feFlood flood-opacity="0" result="BackgroundImageFix"/>
<feColorMatrix in="SourceAlpha" type="matrix" values="0 0 0 0 0 0 0 0 0 0 0 0 0 0 0 0 0 0 127 0" result="hardAlpha"/>
<feOffset dy="1"/>
<feGaussianBlur stdDeviation="1"/>
<feComposite in2="hardAlpha" operator="out"/>
<feColorMatrix type="matrix" values="0 0 0 0 0 0 0 0 0 0 0 0 0 0 0 0 0 0 0.2 0"/>
<feBlend mode="normal" in2="BackgroundImageFix" result="effect1_dropShadow_1122_5324"/>
<feBlend mode="normal" in="SourceGraphic" in2="effect1_dropShadow_1122_5324" result="shape"/>
</filter>
<linearGradient id="paint0_linear_1122_5324" x1="12.8396" y1="60.2819" x2="12.8396" y2="12.7246" gradientUnits="userSpaceOnUse">
<stop stop-color="#C8D2DA"/>
<stop offset="1" stop-color="white"/>
</linearGradient>
<linearGradient id="paint1_linear_1122_5324" x1="36.905" y1="24.7245" x2="36.905" y2="1" gradientUnits="userSpaceOnUse">
<stop stop-color="#2C5CA5"/>
<stop offset="1" stop-color="#48A4DF"/>
</linearGradient>
<linearGradient id="paint2_linear_1122_5324" x1="36.9049" y1="52.9999" x2="36.9049" y2="27.3269" gradientUnits="userSpaceOnUse">
<stop stop-color="#2A58A2"/>
<stop offset="1" stop-color="#49A7E1"/>
</linearGradient>
</defs>
</svg>
