<svg width="44" height="44" viewBox="0 0 44 44" fill="none" xmlns="http://www.w3.org/2000/svg">
<path d="M22 44C34.1503 44 44 34.1503 44 22C44 9.84974 34.1503 0 22 0C9.84974 0 0 9.84974 0 22C0 34.1503 9.84974 44 22 44Z" fill="#7584F2"/>
<path d="M44 22.0001C44 18.4765 43.1715 15.1464 41.6989 12.1938L38.4782 8.97314L8.16333 36.0544L14.9578 42.8488C17.1687 43.5954 19.5371 44.0001 22 44.0001C34.1502 44.0001 44 34.1503 44 22.0001Z" fill="#4855B7"/>
<path d="M30.7817 36.4174H9.23721C8.25933 36.4174 7.46655 35.6246 7.46655 34.6467V8.97314L10.0509 11.0011L12.6352 8.97314L15.2195 11.0011L17.8038 8.97314L20.3881 11.0011L22.9724 8.97314L25.5567 11.0011L28.1411 8.97314L30.7254 11.0011L33.3097 8.97314L35.894 11.0011L38.4783 8.97314V28.7206L33.5074 31.6167L30.7817 36.4174Z" fill="#E9EDF5"/>
<path d="M22.9724 36.4174H30.7816L33.7314 32.0237L38.4784 28.7206V8.97314L35.8941 11.0011L33.3097 8.97314L30.7253 11.0011L28.141 8.97314L25.5567 11.0011L22.9724 8.97314V36.4174Z" fill="#CDD2E1"/>
<path d="M30.7816 30.9526C30.7816 29.7198 31.781 28.7205 33.0138 28.7205H38.4783L30.7816 36.4172V30.9526Z" fill="#7E8596"/>
</svg>
