<svg width="44" height="44" viewBox="0 0 44 44" fill="none" xmlns="http://www.w3.org/2000/svg">
<path d="M22 44C34.1503 44 44 34.1503 44 22C44 9.84974 34.1503 0 22 0C9.84974 0 0 9.84974 0 22C0 34.1503 9.84974 44 22 44Z" fill="#8F00FF"/>
<path d="M43.8819 24.2942L33.9306 14.343L10.8317 37.0755L17.2399 43.4837C18.7727 43.8219 20.3656 44.0001 22 44.0001C33.3757 44.0001 42.7347 35.3663 43.8819 24.2942Z" fill="#6300B0"/>
<path d="M25.8386 6H12.3267C11.0416 6 10 7.04173 10 8.32667V35.033C10 36.318 11.0416 37.3596 12.3267 37.3596H31.5346C32.8196 37.3596 33.8612 36.3179 33.8612 35.033V14.0227L25.8386 6Z" fill="#F85B51"/>
<path d="M25.8385 6H21.9409V37.3597H31.5346C32.8196 37.3597 33.8612 36.3181 33.8612 35.033V14.0227L25.8385 6Z" fill="#F22222"/>
<path d="M25.8386 11.696C25.8386 12.981 26.8803 14.0227 28.1653 14.0227H33.8613L25.8386 6V11.696Z" fill="#F85B51"/>
<path d="M16.672 21.952V20.328H17.56C18.192 20.328 18.472 20.632 18.472 21.144C18.472 21.64 18.192 21.952 17.56 21.952H16.672ZM19.624 21.144C19.624 20.176 18.952 19.416 17.608 19.416H15.552V25H16.672V22.856H17.608C19.048 22.856 19.624 21.992 19.624 21.144ZM22.3712 19.416H20.4192V25H22.3712C24.1552 25 25.3152 23.904 25.3152 22.216C25.3152 20.52 24.1552 19.416 22.3712 19.416ZM21.5392 24.048V20.36H22.3312C23.5072 20.36 24.1712 21.056 24.1712 22.216C24.1712 23.376 23.5072 24.048 22.3312 24.048H21.5392ZM26.1536 25H27.2736V22.64H29.0576V21.752H27.2736V20.32H29.6016V19.416H26.1536V25Z" fill="white"/>
</svg>
