<svg width="44" height="44" viewBox="0 0 44 44" fill="none" xmlns="http://www.w3.org/2000/svg">
<path d="M22.0004 44.0009C34.151 44.0009 44.0009 34.151 44.0009 22.0004C44.0009 9.84993 34.151 0 22.0004 0C9.84993 0 0 9.84993 0 22.0004C0 34.151 9.84993 44.0009 22.0004 44.0009Z" fill="#BFE1FF"/>
<path d="M24.3236 19.8614L18.6673 14.2052L3.96338 22.0003L13.634 31.6709L15.1633 37.7141L21.4432 43.994C21.6283 43.9986 21.8139 44.001 22 44.001C34.1506 44.001 44.0005 34.1511 44.0005 22.0005C44.0005 21.8095 43.9981 21.619 43.9932 21.429L29.2861 6.72192L24.3236 19.8614Z" fill="#87C7FF"/>
<path d="M22 21.2053L22.2437 22.2441L21.2049 22.0004H3.96338V21.2053C3.96338 16.2246 8.00106 12.187 12.9817 12.187C17.9624 12.1869 22 16.2246 22 21.2053Z" fill="#FFCE00"/>
<path d="M22 22.7956V21.7568L22.4796 22.0005H40.0367V22.7956C40.0367 27.7763 35.999 31.814 31.0183 31.814C26.0377 31.8139 22 27.7763 22 22.7956Z" fill="#4855B7"/>
<path d="M21.2049 22.0005H22V40.0372H21.2049C16.2242 40.0372 12.1866 35.9995 12.1866 31.0188C12.1866 26.0382 16.2242 22.0005 21.2049 22.0005Z" fill="#2CC47F"/>
<path d="M22.7951 22.0005H22V3.96387H22.7951C27.7758 3.96387 31.8135 8.00155 31.8135 12.9822C31.8134 17.9629 27.7758 22.0005 22.7951 22.0005Z" fill="#F92814"/>
</svg>
