<svg width="48" height="48" viewBox="0 0 48 48" fill="none" xmlns="http://www.w3.org/2000/svg">
<path d="M28.617 28.6267C30.0079 27.2358 32.2706 27.2358 33.6708 28.6267L36.2302 31.1861L31.1763 36.24L28.617 33.6806C27.226 32.2803 27.226 30.0177 28.617 28.6267Z" fill="#002147"/>
<path d="M30.1937 40.3015C31.5847 38.9106 33.8474 38.9106 35.2476 40.3015L37.807 42.8609L32.7531 47.9055L30.1937 45.3461C28.7935 43.9551 28.7935 41.6925 30.1937 40.3015Z" fill="#002147"/>
<path d="M19.2883 19.2873C17.8973 20.6783 15.6347 20.6783 14.2344 19.2873L11.675 16.7279L16.7289 11.6741L19.2883 14.2335C20.6793 15.6337 20.6793 17.8964 19.2883 19.2873Z" fill="#002147"/>
<path d="M7.61325 17.7214C6.22228 19.1124 3.95963 19.1124 2.55939 17.7214L0 15.162L5.05386 10.1082L7.61325 12.6675C9.00422 14.0678 9.00422 16.3212 7.61325 17.7214Z" fill="#002147"/>
<path d="M17.7119 7.61325C16.3209 9.00422 14.0583 9.00422 12.658 7.61325L10.0986 5.05386L15.1525 0L17.7119 2.55939C19.1121 3.95963 19.1121 6.22228 17.7119 7.61325Z" fill="#002147"/>
<path d="M40.2923 30.1934C41.6832 28.8024 43.9459 28.8024 45.3461 30.1934L47.9055 32.7528L42.8516 37.8066L40.2923 35.2472C38.9013 33.847 38.9013 31.5936 40.2923 30.1934Z" fill="#002147"/>
<path d="M28.617 19.2873C27.226 17.8964 27.226 15.6337 28.617 14.2335L31.1763 11.6741L36.2302 16.7279L33.6708 19.2873C32.2798 20.6783 30.0172 20.6783 28.617 19.2873Z" fill="#002147"/>
<path d="M30.1931 7.61325C28.8022 6.22228 28.8022 3.95963 30.1931 2.55939L32.7525 0L37.8064 5.05386L35.247 7.61325C33.8467 9.01349 31.5841 9.01349 30.1931 7.61325Z" fill="#002147"/>
<path d="M40.2923 17.7214C38.9013 16.3304 38.9013 14.0678 40.2923 12.6675L42.8516 10.1082L47.9055 15.162L45.3461 17.7214C43.9459 19.1124 41.6832 19.1124 40.2923 17.7214Z" fill="#002147"/>
<path d="M19.2883 28.6267C20.6793 30.0177 20.6793 32.2803 19.2883 33.6806L16.7289 36.24L11.675 31.1861L14.2344 28.6267C15.6254 27.2358 17.8881 27.2358 19.2883 28.6267Z" fill="#002147"/>
<path d="M17.7119 40.3012C19.1028 41.6921 19.1028 43.9548 17.7119 45.355L15.1525 47.9144L10.0986 42.8606L12.658 40.3012C14.0583 38.9009 16.3209 38.9009 17.7119 40.3012Z" fill="#002147"/>
<path d="M7.61325 30.1934C9.00422 31.5843 9.00422 33.847 7.61325 35.2472L5.05386 37.8066L0 32.7528L2.55939 30.1934C3.95963 28.8024 6.213 28.8024 7.61325 30.1934Z" fill="#002147"/>
</svg>
