<svg width="44" height="44" viewBox="0 0 44 44" fill="none" xmlns="http://www.w3.org/2000/svg">
<path d="M22 44C34.1503 44 44 34.1503 44 22C44 9.84974 34.1503 0 22 0C9.84974 0 0 9.84974 0 22C0 34.1503 9.84974 44 22 44Z" fill="#BFE1FF"/>
<path d="M39.7657 35C40.1024 34.5542 43 31 43.5 26L32 12.5L9.5 28.5L21.5 44C24 44 26.3398 43.5 26.7657 43.5C34.5 41.5 37.5 38 39.7657 35Z" fill="#87C7FF"/>
<path d="M18.63 15.8298L28.512 22L18.63 28.1701V15.8298Z" fill="white"/>
<circle cx="22" cy="22" r="14" fill="#FF7474"/>
<path d="M17 29L28 22L17 15V29Z" fill="white"/>
</svg>
