<svg width="44" height="50" viewBox="0 0 44 50" fill="none" xmlns="http://www.w3.org/2000/svg">
<path d="M9.76904 0.437744C8.08467 0.437744 6.70654 1.81587 6.70654 3.50024V46.3752C6.70654 48.0596 8.08467 49.4377 9.76904 49.4377H40.394C42.0784 49.4377 43.4565 48.0596 43.4565 46.3752V12.6877L31.2065 0.437744H9.76904Z" fill="#E2E5E7"/>
<path d="M34.269 12.6877H43.4565L31.2065 0.437744V9.62524C31.2065 11.3096 32.5847 12.6877 34.269 12.6877Z" fill="#B0B7BD"/>
<path d="M43.4565 21.8752L34.269 12.6877H43.4565V21.8752Z" fill="#CAD1D8"/>
<path d="M37.3315 40.2478C37.3315 41.09 36.6425 41.7791 35.8003 41.7791H2.11279C1.27061 41.7791 0.581543 41.09 0.581543 40.2478V24.9353C0.581543 24.0931 1.27061 23.4041 2.11279 23.4041H35.8003C36.6425 23.4041 37.3315 24.0931 37.3315 24.9353V40.2478Z" fill="#F15642"/>
<path d="M7.24744 29.4461C7.24744 29.0418 7.56594 28.6008 8.0789 28.6008H10.9071C12.4996 28.6008 13.9329 29.6666 13.9329 31.7093C13.9329 33.6448 12.4996 34.7228 10.9071 34.7228H8.8629V36.3398C8.8629 36.8788 8.5199 37.1835 8.0789 37.1835C7.67465 37.1835 7.24744 36.8788 7.24744 36.3398V29.4461ZM8.8629 30.1428V33.193H10.9071C11.7279 33.193 12.3771 32.4688 12.3771 31.7093C12.3771 30.8533 11.7279 30.1428 10.9071 30.1428H8.8629Z" fill="white"/>
<path d="M16.3337 37.1873C15.9294 37.1873 15.4884 36.9667 15.4884 36.4293V29.4743C15.4884 29.0349 15.9294 28.7148 16.3337 28.7148H19.1374C24.7326 28.7148 24.6101 37.1873 19.2476 37.1873H16.3337ZM17.1054 30.2093V35.6943H19.1374C22.4433 35.6943 22.5903 30.2093 19.1374 30.2093H17.1054Z" fill="white"/>
<path d="M26.5968 30.3089V32.2551H29.719C30.16 32.2551 30.601 32.6961 30.601 33.1233C30.601 33.5276 30.16 33.8583 29.719 33.8583H26.5968V36.4293C26.5968 36.858 26.2921 37.1873 25.8633 37.1873C25.3243 37.1873 24.9951 36.858 24.9951 36.4293V29.4743C24.9951 29.0349 25.3259 28.7148 25.8633 28.7148H30.1616C30.7006 28.7148 31.0191 29.0349 31.0191 29.4743C31.0191 29.8663 30.7006 30.3073 30.1616 30.3073H26.5968V30.3089Z" fill="white"/>
<path d="M35.8003 41.7827H6.70654V43.314H35.8003C36.6425 43.314 37.3315 42.6249 37.3315 41.7827V40.2515C37.3315 41.0937 36.6425 41.7827 35.8003 41.7827Z" fill="#CAD1D8"/>
</svg>
