<svg width="44" height="44" viewBox="0 0 44 44" fill="none" xmlns="http://www.w3.org/2000/svg">
<path d="M22 44C34.1503 44 44 34.1503 44 22C44 9.84974 34.1503 0 22 0C9.84974 0 0 9.84974 0 22C0 34.1503 9.84974 44 22 44Z" fill="#8F00FF"/>
<path d="M43.8822 24.2939L33.931 14.3428L10.832 37.0753L17.2402 43.4835C18.7731 43.8217 20.3659 43.9999 22.0004 43.9999C33.376 43.9999 42.735 35.3661 43.8822 24.2939Z" fill="#6300B0"/>
<path d="M25.8386 6H12.3267C11.0416 6 10 7.04173 10 8.32667V35.033C10 36.318 11.0416 37.3596 12.3267 37.3596H31.5346C32.8196 37.3596 33.8612 36.3179 33.8612 35.033V14.0227L25.8386 6Z" fill="#F85B51"/>
<path d="M25.839 6H21.9414V37.3597H31.535C32.8201 37.3597 33.8617 36.3181 33.8617 35.033V14.0227L25.839 6Z" fill="#F22222"/>
<path d="M25.8389 11.696C25.8389 12.981 26.8805 14.0227 28.1655 14.0227H33.8616L25.8389 6V11.696Z" fill="#F85B51"/>
<path d="M19.624 21.144C19.624 21.4427 19.552 21.7227 19.408 21.984C19.2693 22.2453 19.048 22.456 18.744 22.616C18.4453 22.776 18.0667 22.856 17.608 22.856H16.672V25H15.552V19.416H17.608C18.04 19.416 18.408 19.4907 18.712 19.64C19.016 19.7893 19.2427 19.9947 19.392 20.256C19.5467 20.5173 19.624 20.8133 19.624 21.144ZM17.56 21.952C17.8693 21.952 18.0987 21.8827 18.248 21.744C18.3973 21.6 18.472 21.4 18.472 21.144C18.472 20.6 18.168 20.328 17.56 20.328H16.672V21.952H17.56ZM22.3712 19.416C22.9579 19.416 23.4725 19.5307 23.9152 19.76C24.3632 19.9893 24.7072 20.3173 24.9472 20.744C25.1925 21.1653 25.3152 21.656 25.3152 22.216C25.3152 22.776 25.1925 23.2667 24.9472 23.688C24.7072 24.104 24.3632 24.4267 23.9152 24.656C23.4725 24.8853 22.9579 25 22.3712 25H20.4192V19.416H22.3712ZM22.3312 24.048C22.9179 24.048 23.3712 23.888 23.6912 23.568C24.0112 23.248 24.1712 22.7973 24.1712 22.216C24.1712 21.6347 24.0112 21.1813 23.6912 20.856C23.3712 20.5253 22.9179 20.36 22.3312 20.36H21.5392V24.048H22.3312ZM29.6016 19.416V20.32H27.2736V21.752H29.0576V22.64H27.2736V25H26.1536V19.416H29.6016Z" fill="white"/>
</svg>
